<svg width="176" height="60" viewBox="0 0 176 60" fill="none" xmlns="http://www.w3.org/2000/svg">
<rect x="0.75" y="0.75" width="174.5" height="58.5" rx="7.25" stroke="#ACABB7" stroke-width="1.5"/>
<path d="M63.524 24C63.396 24 63.304 23.972 63.248 23.916C63.192 23.86 63.164 23.768 63.164 23.64V15.96C63.164 15.832 63.192 15.74 63.248 15.684C63.304 15.628 63.396 15.6 63.524 15.6H65.948C67.068 15.6 67.964 15.936 68.636 16.608C69.316 17.272 69.656 18.336 69.656 19.8C69.656 21.272 69.316 22.34 68.636 23.004C67.964 23.668 67.068 24 65.948 24H63.524ZM65.864 23.088C66.672 23.088 67.324 22.824 67.82 22.296C68.316 21.768 68.564 20.936 68.564 19.8C68.564 18.672 68.316 17.844 67.82 17.316C67.324 16.78 66.672 16.512 65.864 16.512H64.22V23.088H65.864ZM73.7878 24.072C72.8838 24.072 72.1918 23.8 71.7118 23.256C71.2398 22.712 71.0038 21.924 71.0038 20.892C71.0038 19.852 71.2438 19.052 71.7238 18.492C72.2038 17.932 72.8918 17.652 73.7878 17.652C74.6678 17.652 75.3398 17.932 75.8038 18.492C76.2758 19.044 76.5117 19.844 76.5117 20.892C76.5117 21.932 76.2798 22.724 75.8158 23.268C75.3598 23.804 74.6838 24.072 73.7878 24.072ZM73.7518 23.208C74.3358 23.208 74.7678 23.02 75.0478 22.644C75.3278 22.26 75.4678 21.668 75.4678 20.868C75.4678 20.068 75.3278 19.476 75.0478 19.092C74.7678 18.708 74.3358 18.516 73.7518 18.516C73.1678 18.516 72.7398 18.708 72.4678 19.092C72.1958 19.468 72.0598 20.06 72.0598 20.868C72.0598 21.668 72.1958 22.26 72.4678 22.644C72.7398 23.02 73.1678 23.208 73.7518 23.208ZM79.5546 24.024C79.2666 24.024 79.1066 23.96 79.0746 23.832L77.4906 18.144C77.4506 18.024 77.4306 17.944 77.4306 17.904C77.4306 17.768 77.6146 17.7 77.9826 17.7C78.2706 17.7 78.4306 17.764 78.4626 17.892L79.4706 21.732C79.4946 21.804 79.5226 21.928 79.5546 22.104C79.5866 22.272 79.6106 22.4 79.6266 22.488L79.7466 23.112H79.7946C79.9226 22.4 80.0146 21.936 80.0706 21.72L81.0666 17.904C81.0986 17.768 81.2546 17.7 81.5346 17.7H81.6186C81.8986 17.7 82.0546 17.768 82.0866 17.904L83.0946 21.72C83.1826 22.072 83.2466 22.38 83.2866 22.644C83.3346 22.9 83.3666 23.064 83.3826 23.136H83.4066L83.4906 22.632C83.5786 22.176 83.6386 21.88 83.6706 21.744L84.6786 17.892C84.7106 17.764 84.8746 17.7 85.1706 17.7C85.4906 17.7 85.6506 17.768 85.6506 17.904C85.6506 17.944 85.6386 18 85.6146 18.072L84.0066 23.832C83.9746 23.96 83.8146 24.024 83.5266 24.024H83.1666C82.8866 24.024 82.7306 23.96 82.6986 23.832L81.7386 20.028C81.7146 19.932 81.6586 19.616 81.5706 19.08H81.5466C81.4586 19.584 81.4026 19.896 81.3786 20.016L80.3946 23.832C80.3626 23.96 80.2026 24.024 79.9146 24.024H79.5546ZM87.5354 24.024C87.2154 24.024 87.0554 23.936 87.0554 23.76V19.548C87.0554 19.02 87.0314 18.644 86.9834 18.42C86.9354 18.188 86.9114 18.06 86.9114 18.036C86.9114 17.94 86.9874 17.872 87.1394 17.832C87.2914 17.784 87.4314 17.76 87.5594 17.76C87.6714 17.76 87.7514 17.82 87.7994 17.94C87.8554 18.052 87.8954 18.172 87.9194 18.3C87.9514 18.428 87.9714 18.512 87.9794 18.552C88.2354 18.272 88.5274 18.052 88.8554 17.892C89.1834 17.732 89.5154 17.652 89.8514 17.652C90.4594 17.652 90.9354 17.824 91.2794 18.168C91.6314 18.512 91.8074 18.988 91.8074 19.596V23.76C91.8074 23.936 91.6474 24.024 91.3274 24.024H91.2794C90.9594 24.024 90.7994 23.936 90.7994 23.76V19.692C90.7994 19.324 90.6914 19.04 90.4754 18.84C90.2674 18.632 89.9674 18.528 89.5754 18.528C89.3034 18.528 89.0314 18.604 88.7594 18.756C88.4954 18.908 88.2634 19.112 88.0634 19.368V23.76C88.0634 23.936 87.9034 24.024 87.5834 24.024H87.5354ZM95.2351 24.072C94.8351 24.072 94.4751 23.952 94.1551 23.712C93.8431 23.464 93.6871 23.032 93.6871 22.416V15.24C93.6871 15.064 93.8471 14.976 94.1671 14.976H94.2151C94.5351 14.976 94.6951 15.064 94.6951 15.24V22.32C94.6951 22.656 94.7511 22.888 94.8631 23.016C94.9831 23.144 95.1431 23.208 95.3431 23.208C95.4951 23.208 95.6071 23.2 95.6791 23.184C95.7591 23.16 95.8191 23.148 95.8591 23.148C95.9311 23.148 95.9911 23.224 96.0391 23.376C96.0871 23.52 96.1111 23.632 96.1111 23.712C96.1111 23.952 95.8191 24.072 95.2351 24.072ZM99.3112 24.072C98.4072 24.072 97.7152 23.8 97.2352 23.256C96.7632 22.712 96.5272 21.924 96.5272 20.892C96.5272 19.852 96.7672 19.052 97.2472 18.492C97.7272 17.932 98.4152 17.652 99.3112 17.652C100.191 17.652 100.863 17.932 101.327 18.492C101.799 19.044 102.035 19.844 102.035 20.892C102.035 21.932 101.803 22.724 101.339 23.268C100.883 23.804 100.207 24.072 99.3112 24.072ZM99.2752 23.208C99.8592 23.208 100.291 23.02 100.571 22.644C100.851 22.26 100.991 21.668 100.991 20.868C100.991 20.068 100.851 19.476 100.571 19.092C100.291 18.708 99.8592 18.516 99.2752 18.516C98.6912 18.516 98.2632 18.708 97.9912 19.092C97.7192 19.468 97.5832 20.06 97.5832 20.868C97.5832 21.668 97.7192 22.26 97.9912 22.644C98.2632 23.02 98.6912 23.208 99.2752 23.208ZM105.339 24.072C104.723 24.072 104.227 23.92 103.851 23.616C103.475 23.312 103.287 22.864 103.287 22.272C103.287 21.64 103.475 21.168 103.851 20.856C104.235 20.536 104.703 20.332 105.255 20.244C105.807 20.148 106.479 20.096 107.271 20.088V19.524C107.271 19.228 107.167 18.988 106.959 18.804C106.751 18.612 106.415 18.516 105.951 18.516C105.599 18.516 105.291 18.56 105.027 18.648C104.763 18.728 104.543 18.812 104.367 18.9C104.191 18.98 104.095 19.02 104.079 19.02C103.999 19.02 103.907 18.94 103.803 18.78C103.707 18.62 103.659 18.5 103.659 18.42C103.659 18.316 103.763 18.204 103.971 18.084C104.187 17.964 104.471 17.864 104.823 17.784C105.175 17.696 105.539 17.652 105.915 17.652C106.659 17.652 107.239 17.82 107.655 18.156C108.071 18.484 108.279 18.944 108.279 19.536V22.224C108.279 22.752 108.303 23.132 108.351 23.364C108.399 23.588 108.423 23.712 108.423 23.736C108.423 23.832 108.347 23.904 108.195 23.952C108.043 23.992 107.903 24.012 107.775 24.012C107.663 24.012 107.579 23.952 107.523 23.832C107.475 23.704 107.435 23.572 107.403 23.436C107.379 23.3 107.363 23.212 107.355 23.172C106.811 23.772 106.139 24.072 105.339 24.072ZM105.387 23.196C105.779 23.196 106.115 23.124 106.395 22.98C106.683 22.836 106.975 22.632 107.271 22.368V20.952C106.671 20.96 106.179 20.984 105.795 21.024C105.419 21.064 105.087 21.176 104.799 21.36C104.511 21.544 104.367 21.828 104.367 22.212C104.367 22.532 104.451 22.776 104.619 22.944C104.795 23.112 105.051 23.196 105.387 23.196ZM112.19 24.072C111.718 24.072 111.306 23.936 110.954 23.664C110.602 23.392 110.33 23.012 110.138 22.524C109.954 22.036 109.862 21.484 109.862 20.868C109.862 20.188 109.962 19.608 110.162 19.128C110.37 18.64 110.658 18.272 111.026 18.024C111.394 17.776 111.818 17.652 112.298 17.652C112.65 17.652 112.958 17.704 113.222 17.808C113.494 17.912 113.758 18.064 114.014 18.264V15.24C114.014 15.064 114.174 14.976 114.494 14.976H114.542C114.862 14.976 115.022 15.064 115.022 15.24V22.224C115.022 22.752 115.046 23.132 115.094 23.364C115.142 23.588 115.166 23.712 115.166 23.736C115.166 23.832 115.09 23.904 114.938 23.952C114.786 23.992 114.646 24.012 114.518 24.012C114.406 24.012 114.322 23.952 114.266 23.832C114.218 23.704 114.178 23.572 114.146 23.436C114.122 23.3 114.106 23.212 114.098 23.172C113.522 23.772 112.886 24.072 112.19 24.072ZM112.394 23.196C112.666 23.196 112.942 23.124 113.222 22.98C113.51 22.836 113.774 22.632 114.014 22.368V19.08C113.582 18.72 113.09 18.54 112.538 18.54C112.002 18.54 111.598 18.732 111.326 19.116C111.054 19.5 110.918 20.052 110.918 20.772C110.918 21.548 111.046 22.148 111.302 22.572C111.558 22.988 111.922 23.196 112.394 23.196ZM121.606 24.024C121.326 24.024 121.166 23.96 121.126 23.832L119.194 18.06C119.17 17.988 119.158 17.936 119.158 17.904C119.158 17.768 119.33 17.7 119.674 17.7H119.734C120.014 17.7 120.174 17.764 120.214 17.892L121.438 21.72C121.574 22.16 121.706 22.66 121.834 23.22H121.882C121.89 23.172 121.934 22.976 122.014 22.632C122.094 22.288 122.202 21.92 122.338 21.528L123.502 17.892C123.542 17.764 123.706 17.7 123.994 17.7H124.03C124.326 17.7 124.474 17.768 124.474 17.904C124.474 17.944 124.462 18 124.438 18.072L122.506 23.832C122.466 23.96 122.306 24.024 122.026 24.024H121.606ZM126.302 24.024C125.982 24.024 125.822 23.936 125.822 23.76V17.964C125.822 17.788 125.982 17.7 126.302 17.7H126.35C126.67 17.7 126.83 17.788 126.83 17.964V23.76C126.83 23.936 126.67 24.024 126.35 24.024H126.302ZM126.326 16.86C125.974 16.86 125.798 16.772 125.798 16.596V15.876C125.798 15.7 125.974 15.612 126.326 15.612C126.678 15.612 126.854 15.7 126.854 15.876V16.596C126.854 16.772 126.678 16.86 126.326 16.86ZM130.546 24.072C129.93 24.072 129.434 23.92 129.058 23.616C128.682 23.312 128.494 22.864 128.494 22.272C128.494 21.64 128.682 21.168 129.058 20.856C129.442 20.536 129.91 20.332 130.462 20.244C131.014 20.148 131.686 20.096 132.478 20.088V19.524C132.478 19.228 132.374 18.988 132.166 18.804C131.958 18.612 131.622 18.516 131.158 18.516C130.806 18.516 130.498 18.56 130.234 18.648C129.97 18.728 129.75 18.812 129.574 18.9C129.398 18.98 129.302 19.02 129.286 19.02C129.206 19.02 129.114 18.94 129.01 18.78C128.914 18.62 128.866 18.5 128.866 18.42C128.866 18.316 128.97 18.204 129.178 18.084C129.394 17.964 129.678 17.864 130.03 17.784C130.382 17.696 130.746 17.652 131.122 17.652C131.866 17.652 132.446 17.82 132.862 18.156C133.278 18.484 133.486 18.944 133.486 19.536V22.224C133.486 22.752 133.51 23.132 133.558 23.364C133.606 23.588 133.63 23.712 133.63 23.736C133.63 23.832 133.554 23.904 133.402 23.952C133.25 23.992 133.11 24.012 132.982 24.012C132.87 24.012 132.786 23.952 132.73 23.832C132.682 23.704 132.642 23.572 132.61 23.436C132.586 23.3 132.57 23.212 132.562 23.172C132.018 23.772 131.346 24.072 130.546 24.072ZM130.594 23.196C130.986 23.196 131.322 23.124 131.602 22.98C131.89 22.836 132.182 22.632 132.478 22.368V20.952C131.878 20.96 131.386 20.984 131.002 21.024C130.626 21.064 130.294 21.176 130.006 21.36C129.718 21.544 129.574 21.828 129.574 22.212C129.574 22.532 129.658 22.776 129.826 22.944C130.002 23.112 130.258 23.196 130.594 23.196Z" fill="#7A7786"/>
<path d="M62.976 42.032C62.3253 42.032 62 41.9147 62 41.68C62 41.6373 62.0213 41.5413 62.064 41.392L65.584 31.104C65.6693 30.88 65.9733 30.768 66.496 30.768H67.328C67.8613 30.768 68.1653 30.88 68.24 31.104L71.76 41.392C71.792 41.4987 71.808 41.5947 71.808 41.68C71.808 41.9147 71.5413 42.032 71.008 42.032H70.304C69.7813 42.032 69.4827 41.92 69.408 41.696L68.768 39.744H64.992L64.352 41.696C64.2773 41.92 64.032 42.032 63.616 42.032H62.976ZM68.08 37.632L67.168 34.784C67.0933 34.5707 67.0133 34.2293 66.928 33.76H66.864C66.8533 33.824 66.8267 33.968 66.784 34.192C66.752 34.4053 66.6987 34.6027 66.624 34.784L65.68 37.632H68.08ZM73.8925 45.296C73.2525 45.296 72.9325 45.1253 72.9325 44.784V36.448C72.9325 35.9787 72.9165 35.6213 72.8845 35.376C72.8632 35.12 72.8312 34.8373 72.7885 34.528C72.7565 34.3787 72.7405 34.2667 72.7405 34.192C72.7405 34.0213 72.9538 33.8933 73.3805 33.808C73.8178 33.7227 74.2018 33.68 74.5325 33.68C74.7245 33.68 74.8578 33.7547 74.9325 33.904C75.0072 34.0427 75.0605 34.1973 75.0925 34.368C75.1352 34.528 75.1618 34.64 75.1725 34.704C75.3645 34.352 75.6472 34.064 76.0205 33.84C76.4045 33.616 76.8365 33.504 77.3165 33.504C77.8925 33.504 78.4045 33.6747 78.8525 34.016C79.3112 34.3467 79.6685 34.8373 79.9245 35.488C80.1805 36.1387 80.3085 36.9173 80.3085 37.824C80.3085 39.1467 80.0098 40.1973 79.4125 40.976C78.8258 41.744 77.9992 42.128 76.9325 42.128C76.3032 42.128 75.7592 41.9627 75.3005 41.632V44.784C75.3005 45.1253 74.9805 45.296 74.3405 45.296H73.8925ZM76.4205 40.256C77.4125 40.256 77.9085 39.4453 77.9085 37.824C77.9085 36.2347 77.4765 35.44 76.6125 35.44C76.1005 35.44 75.6632 35.7547 75.3005 36.384V39.952C75.6632 40.1547 76.0365 40.256 76.4205 40.256ZM83.0644 45.296C82.4244 45.296 82.1044 45.1253 82.1044 44.784V36.448C82.1044 35.9787 82.0884 35.6213 82.0564 35.376C82.035 35.12 82.003 34.8373 81.9604 34.528C81.9284 34.3787 81.9124 34.2667 81.9124 34.192C81.9124 34.0213 82.1257 33.8933 82.5524 33.808C82.9897 33.7227 83.3737 33.68 83.7044 33.68C83.8964 33.68 84.0297 33.7547 84.1044 33.904C84.179 34.0427 84.2324 34.1973 84.2644 34.368C84.307 34.528 84.3337 34.64 84.3444 34.704C84.5364 34.352 84.819 34.064 85.1924 33.84C85.5764 33.616 86.0084 33.504 86.4884 33.504C87.0644 33.504 87.5764 33.6747 88.0244 34.016C88.483 34.3467 88.8404 34.8373 89.0964 35.488C89.3524 36.1387 89.4804 36.9173 89.4804 37.824C89.4804 39.1467 89.1817 40.1973 88.5844 40.976C87.9977 41.744 87.171 42.128 86.1044 42.128C85.475 42.128 84.931 41.9627 84.4724 41.632V44.784C84.4724 45.1253 84.1524 45.296 83.5124 45.296H83.0644ZM85.5924 40.256C86.5844 40.256 87.0804 39.4453 87.0804 37.824C87.0804 36.2347 86.6484 35.44 85.7844 35.44C85.2724 35.44 84.835 35.7547 84.4724 36.384V39.952C84.835 40.1547 85.2084 40.256 85.5924 40.256ZM93.5003 42.128C91.9429 42.128 91.1643 41.264 91.1643 39.536V30.448C91.1643 30.1067 91.4843 29.936 92.1243 29.936H92.5723C93.2123 29.936 93.5323 30.1067 93.5323 30.448V39.568C93.5323 39.8133 93.5749 39.9893 93.6603 40.096C93.7563 40.2027 93.9056 40.256 94.1083 40.256C94.1616 40.256 94.2309 40.2453 94.3163 40.224C94.4123 40.2027 94.4869 40.192 94.5403 40.192C94.6363 40.192 94.7216 40.272 94.7963 40.432C94.8709 40.592 94.9296 40.768 94.9723 40.96C95.0149 41.152 95.0363 41.28 95.0363 41.344C95.0363 41.8667 94.5243 42.128 93.5003 42.128ZM99.223 42.128C97.815 42.128 96.7643 41.7547 96.071 41.008C95.3883 40.2507 95.047 39.2053 95.047 37.872C95.047 36.368 95.3883 35.264 96.071 34.56C96.7643 33.856 97.719 33.504 98.935 33.504C100.119 33.504 100.988 33.888 101.543 34.656C102.108 35.424 102.391 36.416 102.391 37.632C102.391 37.76 102.279 37.952 102.055 38.208C101.842 38.4533 101.682 38.576 101.575 38.576H97.495C97.5483 39.184 97.7297 39.616 98.039 39.872C98.3483 40.128 98.7803 40.256 99.335 40.256C99.6337 40.256 99.9057 40.224 100.151 40.16C100.396 40.0853 100.652 39.9947 100.919 39.888C101.09 39.8027 101.207 39.76 101.271 39.76C101.378 39.76 101.495 39.84 101.623 40C101.762 40.1493 101.874 40.3253 101.959 40.528C102.055 40.72 102.103 40.8693 102.103 40.976C102.103 41.2213 101.938 41.4347 101.607 41.616C101.276 41.7867 100.882 41.9147 100.423 42C99.9643 42.0853 99.5643 42.128 99.223 42.128ZM100.087 36.992C100.087 36.5013 99.991 36.112 99.799 35.824C99.607 35.5253 99.319 35.376 98.935 35.376C98.1457 35.376 97.6657 35.9147 97.495 36.992H100.087ZM110.956 42.128C110.198 42.128 109.537 42.0533 108.972 41.904C108.406 41.7547 107.964 41.5627 107.644 41.328C107.345 41.1253 107.196 40.9227 107.196 40.72C107.196 40.56 107.254 40.368 107.372 40.144C107.489 39.92 107.628 39.7227 107.788 39.552C107.948 39.3813 108.081 39.296 108.188 39.296C108.252 39.296 108.401 39.36 108.636 39.488C108.977 39.6587 109.286 39.792 109.564 39.888C109.841 39.984 110.166 40.032 110.54 40.032C110.956 40.032 111.308 39.952 111.596 39.792C111.894 39.6213 112.044 39.328 112.044 38.912C112.044 38.5707 111.905 38.304 111.628 38.112C111.361 37.9093 110.924 37.6853 110.316 37.44L109.58 37.12C108.908 36.8 108.38 36.4053 107.996 35.936C107.612 35.456 107.42 34.7787 107.42 33.904C107.42 33.1787 107.596 32.576 107.948 32.096C108.31 31.6053 108.78 31.248 109.356 31.024C109.932 30.7893 110.55 30.672 111.212 30.672C111.756 30.672 112.246 30.7307 112.684 30.848C113.132 30.9547 113.484 31.0987 113.74 31.28C113.974 31.4507 114.092 31.6213 114.092 31.792C114.092 31.9413 114.044 32.128 113.948 32.352C113.852 32.576 113.734 32.7733 113.596 32.944C113.457 33.104 113.329 33.184 113.212 33.184C113.158 33.184 113.068 33.1573 112.94 33.104C112.822 33.0507 112.721 33.008 112.636 32.976C112.252 32.848 111.852 32.784 111.436 32.784C110.881 32.784 110.492 32.8747 110.268 33.056C110.054 33.2373 109.948 33.4453 109.948 33.68C109.948 33.9573 110.022 34.1867 110.172 34.368C110.321 34.5493 110.502 34.6987 110.716 34.816C110.929 34.9227 111.244 35.0667 111.66 35.248C112.268 35.504 112.764 35.7493 113.148 35.984C113.532 36.208 113.862 36.5387 114.14 36.976C114.428 37.4027 114.572 37.952 114.572 38.624C114.572 39.4453 114.396 40.1173 114.044 40.64C113.702 41.1627 113.26 41.5413 112.716 41.776C112.172 42.0107 111.585 42.128 110.956 42.128ZM118.412 42.128C116.854 42.128 116.076 41.264 116.076 39.536V35.504H115.82C115.649 35.504 115.526 35.44 115.452 35.312C115.377 35.184 115.34 34.9813 115.34 34.704V34.432C115.34 34.1547 115.377 33.952 115.452 33.824C115.526 33.696 115.649 33.632 115.82 33.632H116.076L116.284 32.112C116.337 31.7707 116.625 31.6 117.148 31.6H117.644C118.177 31.6 118.444 31.7707 118.444 32.112V33.632H119.228C119.398 33.632 119.521 33.696 119.596 33.824C119.67 33.952 119.708 34.1547 119.708 34.432V34.704C119.708 34.9813 119.67 35.184 119.596 35.312C119.521 35.44 119.398 35.504 119.228 35.504H118.444V39.568C118.444 39.8133 118.486 39.9893 118.572 40.096C118.668 40.2027 118.817 40.256 119.02 40.256C119.073 40.256 119.142 40.2453 119.228 40.224C119.324 40.2027 119.398 40.192 119.452 40.192C119.548 40.192 119.633 40.272 119.708 40.432C119.782 40.592 119.841 40.768 119.884 40.96C119.926 41.152 119.948 41.28 119.948 41.344C119.948 41.8667 119.436 42.128 118.412 42.128ZM124.873 42.128C123.603 42.128 122.638 41.76 121.977 41.024C121.315 40.2773 120.985 39.2053 120.985 37.808C120.985 36.4107 121.315 35.344 121.977 34.608C122.638 33.872 123.603 33.504 124.873 33.504C126.142 33.504 127.102 33.872 127.753 34.608C128.414 35.344 128.745 36.4107 128.745 37.808C128.745 39.2053 128.414 40.2773 127.753 41.024C127.102 41.76 126.142 42.128 124.873 42.128ZM124.873 40.256C125.374 40.256 125.742 40.0533 125.977 39.648C126.222 39.232 126.345 38.6187 126.345 37.808C126.345 36.9973 126.222 36.3893 125.977 35.984C125.742 35.5787 125.374 35.376 124.873 35.376C124.371 35.376 123.998 35.5787 123.753 35.984C123.507 36.3893 123.385 36.9973 123.385 37.808C123.385 39.44 123.881 40.256 124.873 40.256ZM131.374 42.032C130.734 42.032 130.414 41.8613 130.414 41.52V36.448C130.414 35.9787 130.398 35.6213 130.366 35.376C130.345 35.12 130.313 34.8373 130.27 34.528C130.238 34.3787 130.222 34.2667 130.222 34.192C130.222 34.0213 130.435 33.8933 130.862 33.808C131.299 33.7227 131.683 33.68 132.014 33.68C132.206 33.68 132.339 33.7547 132.414 33.904C132.489 34.0427 132.542 34.1973 132.574 34.368C132.617 34.5387 132.643 34.656 132.654 34.72C132.857 34.3467 133.091 34.0533 133.358 33.84C133.635 33.616 133.982 33.504 134.398 33.504C134.761 33.504 135.001 33.5787 135.118 33.728C135.246 33.8667 135.31 34.08 135.31 34.368C135.31 34.592 135.262 34.8747 135.166 35.216C135.07 35.5467 134.953 35.712 134.814 35.712C134.75 35.712 134.638 35.6907 134.478 35.648C134.318 35.6053 134.179 35.584 134.062 35.584C133.774 35.584 133.518 35.6693 133.294 35.84C133.081 36 132.91 36.1813 132.782 36.384V41.52C132.782 41.8613 132.462 42.032 131.822 42.032H131.374ZM139.817 42.128C138.409 42.128 137.358 41.7547 136.665 41.008C135.982 40.2507 135.641 39.2053 135.641 37.872C135.641 36.368 135.982 35.264 136.665 34.56C137.358 33.856 138.313 33.504 139.529 33.504C140.713 33.504 141.582 33.888 142.137 34.656C142.702 35.424 142.985 36.416 142.985 37.632C142.985 37.76 142.873 37.952 142.649 38.208C142.435 38.4533 142.275 38.576 142.169 38.576H138.089C138.142 39.184 138.323 39.616 138.633 39.872C138.942 40.128 139.374 40.256 139.929 40.256C140.227 40.256 140.499 40.224 140.745 40.16C140.99 40.0853 141.246 39.9947 141.513 39.888C141.683 39.8027 141.801 39.76 141.865 39.76C141.971 39.76 142.089 39.84 142.217 40C142.355 40.1493 142.467 40.3253 142.553 40.528C142.649 40.72 142.697 40.8693 142.697 40.976C142.697 41.2213 142.531 41.4347 142.201 41.616C141.87 41.7867 141.475 41.9147 141.017 42C140.558 42.0853 140.158 42.128 139.817 42.128ZM140.681 36.992C140.681 36.5013 140.585 36.112 140.393 35.824C140.201 35.5253 139.913 35.376 139.529 35.376C138.739 35.376 138.259 35.9147 138.089 36.992H140.681Z" fill="#7A7786"/>
<path d="M30.7018 41.4639C30.1434 41.0968 29.6486 40.6432 29.2363 40.1205C28.7827 39.581 28.3625 39.015 27.9779 38.4256C27.0753 37.1188 26.3675 35.6905 25.8761 34.1847C25.2858 32.4355 25 30.7589 25 29.119C25 27.2876 25.4009 25.6889 26.185 24.3455C26.7662 23.2955 27.6207 22.4181 28.6602 21.804C29.6675 21.1856 30.825 20.8472 32.0106 20.8244C32.4257 20.8244 32.8726 20.8839 33.3469 20.9976C33.6876 21.0929 34.1027 21.2434 34.6097 21.4305C35.2549 21.6763 35.6097 21.8267 35.7301 21.8634C36.108 21.9999 36.4257 22.0593 36.6752 22.0593C36.8646 22.0593 37.1319 21.9999 37.4354 21.9089C37.6062 21.8494 37.9283 21.7445 38.3894 21.5495C38.846 21.385 39.2053 21.2442 39.4911 21.1393C39.9292 21.0116 40.3531 20.8935 40.731 20.834C41.1789 20.7642 41.6336 20.7458 42.0858 20.7789C42.8696 20.8296 43.6415 20.9937 44.377 21.2661C45.5796 21.7445 46.5522 22.4914 47.2761 23.5531C46.9701 23.7395 46.683 23.9545 46.4186 24.1951C45.843 24.6994 45.3528 25.2914 44.9664 25.9486C44.4613 26.8469 44.1995 27.8588 44.2062 28.8864C44.2248 30.1484 44.5522 31.26 45.1973 32.2212C45.6716 32.9336 46.288 33.5428 47.0088 34.0115C47.3779 34.2573 47.6956 34.4261 48 34.5397C47.8575 34.977 47.7053 35.4003 47.5257 35.8201C47.1182 36.7616 46.6244 37.6641 46.0504 38.5165C45.5389 39.2503 45.1381 39.7969 44.8336 40.1607C44.3593 40.7161 43.9027 41.1403 43.4416 41.4359C42.9345 41.7682 42.3354 41.9458 41.7265 41.9458C41.3142 41.9614 40.902 41.9121 40.5053 41.7997C40.1646 41.686 39.8274 41.5627 39.4956 41.4219C39.1506 41.2653 38.7948 41.1329 38.431 41.0257C37.5316 40.7974 36.5886 40.7959 35.6885 41.0213C35.3195 41.1263 34.9646 41.2487 34.6142 41.3992C34.1212 41.6038 33.7938 41.7411 33.6044 41.7997C33.2265 41.909 32.8345 41.9773 32.4381 42C31.8248 42 31.2531 41.8268 30.6867 41.4761L30.7018 41.4639ZM38.7903 19.9358C37.9885 20.332 37.223 20.5008 36.4628 20.4457C36.3434 19.6892 36.4628 18.9152 36.7805 18.0677C37.051 17.3497 37.4507 16.686 37.9602 16.1086C38.4982 15.5008 39.1511 15.0026 39.8823 14.6419C40.6611 14.2458 41.4035 14.0315 42.1133 14C42.2053 14.7924 42.1133 15.5716 41.8186 16.4139C41.5459 17.1584 41.147 17.8516 40.6389 18.4639C40.1204 19.0726 39.4841 19.5727 38.7673 19.935L38.7903 19.9358Z" fill="#7A7786"/>
</svg>
