<svg width="61" height="61" viewBox="0 0 61 61" fill="none" xmlns="http://www.w3.org/2000/svg">
<circle cx="30.5" cy="30.5" r="30.5" fill="#E1E0E7"/>
<path d="M21.066 34V27.682H22.132V34H21.066ZM21.612 26.382C21.404 26.382 21.2263 26.317 21.079 26.187C20.9403 26.057 20.871 25.8923 20.871 25.693C20.871 25.485 20.9403 25.3203 21.079 25.199C21.2263 25.069 21.404 25.004 21.612 25.004C21.82 25.004 21.9933 25.069 22.132 25.199C22.2793 25.3203 22.353 25.485 22.353 25.693C22.353 25.8923 22.2793 26.057 22.132 26.187C21.9933 26.317 21.82 26.382 21.612 26.382ZM26.6312 34.156C26.2152 34.156 25.8252 34.0823 25.4612 33.935C25.0972 33.7877 24.7809 33.5753 24.5122 33.298C24.2522 33.012 24.0442 32.6653 23.8882 32.258C23.7409 31.842 23.6672 31.374 23.6672 30.854C23.6672 30.3253 23.7496 29.8573 23.9142 29.45C24.0789 29.034 24.2999 28.683 24.5772 28.397C24.8546 28.111 25.1752 27.8943 25.5392 27.747C25.9119 27.5997 26.3019 27.526 26.7092 27.526C27.1252 27.526 27.4806 27.5997 27.7752 27.747C28.0699 27.8943 28.3299 28.0677 28.5552 28.267L28.0092 28.969C27.8272 28.8043 27.6322 28.67 27.4242 28.566C27.2249 28.462 26.9996 28.41 26.7482 28.41C26.4622 28.41 26.1979 28.4707 25.9552 28.592C25.7126 28.7047 25.5046 28.8693 25.3312 29.086C25.1579 29.3027 25.0192 29.5627 24.9152 29.866C24.8199 30.1607 24.7722 30.49 24.7722 30.854C24.7722 31.218 24.8199 31.5473 24.9152 31.842C25.0106 32.1367 25.1406 32.3923 25.3052 32.609C25.4786 32.817 25.6866 32.9817 25.9292 33.103C26.1719 33.2157 26.4362 33.272 26.7222 33.272C27.0169 33.272 27.2856 33.2113 27.5282 33.09C27.7796 32.96 28.0049 32.8083 28.2042 32.635L28.6722 33.35C28.3862 33.6013 28.0699 33.8007 27.7232 33.948C27.3766 34.0867 27.0126 34.156 26.6312 34.156ZM32.1116 34.156C31.7216 34.156 31.349 34.0823 30.9936 33.935C30.647 33.7877 30.3393 33.5753 30.0706 33.298C29.802 33.012 29.5853 32.6653 29.4206 32.258C29.2646 31.842 29.1866 31.374 29.1866 30.854C29.1866 30.3253 29.2646 29.8573 29.4206 29.45C29.5853 29.034 29.802 28.683 30.0706 28.397C30.3393 28.111 30.647 27.8943 30.9936 27.747C31.349 27.5997 31.7216 27.526 32.1116 27.526C32.5016 27.526 32.87 27.5997 33.2166 27.747C33.572 27.8943 33.884 28.111 34.1526 28.397C34.4213 28.683 34.6336 29.034 34.7896 29.45C34.9543 29.8573 35.0366 30.3253 35.0366 30.854C35.0366 31.374 34.9543 31.842 34.7896 32.258C34.6336 32.6653 34.4213 33.012 34.1526 33.298C33.884 33.5753 33.572 33.7877 33.2166 33.935C32.87 34.0823 32.5016 34.156 32.1116 34.156ZM32.1116 33.272C32.3803 33.272 32.6273 33.2157 32.8526 33.103C33.078 32.9817 33.2686 32.817 33.4246 32.609C33.5893 32.3923 33.715 32.1367 33.8016 31.842C33.8883 31.5473 33.9316 31.218 33.9316 30.854C33.9316 30.49 33.8883 30.1607 33.8016 29.866C33.715 29.5627 33.5893 29.3027 33.4246 29.086C33.2686 28.8693 33.078 28.7047 32.8526 28.592C32.6273 28.4707 32.3803 28.41 32.1116 28.41C31.843 28.41 31.596 28.4707 31.3706 28.592C31.1453 28.7047 30.9503 28.8693 30.7856 29.086C30.6296 29.3027 30.5083 29.5627 30.4216 29.866C30.335 30.1607 30.2916 30.49 30.2916 30.854C30.2916 31.218 30.335 31.5473 30.4216 31.842C30.5083 32.1367 30.6296 32.3923 30.7856 32.609C30.9503 32.817 31.1453 32.9817 31.3706 33.103C31.596 33.2157 31.843 33.272 32.1116 33.272ZM36.5705 34V27.682H37.4545L37.5455 28.592H37.5845C37.8879 28.2887 38.2042 28.0373 38.5335 27.838C38.8715 27.63 39.2615 27.526 39.7035 27.526C40.3709 27.526 40.8562 27.734 41.1595 28.15C41.4715 28.566 41.6275 29.1813 41.6275 29.996V34H40.5615V30.139C40.5615 29.541 40.4662 29.112 40.2755 28.852C40.0849 28.5833 39.7815 28.449 39.3655 28.449C39.0362 28.449 38.7459 28.5313 38.4945 28.696C38.2432 28.8607 37.9572 29.1033 37.6365 29.424V34H36.5705Z" fill="#5F5C6B"/>
</svg>
