<svg width="61" height="61" viewBox="0 0 61 61" fill="none" xmlns="http://www.w3.org/2000/svg">
<circle cx="30.5" cy="30.5" r="30.5" fill="#E1E0E7"/>
<path d="M33.0226 22C33.4027 22 33.724 22.1312 33.9864 22.3937C34.2489 22.6561 34.3801 22.9774 34.3801 23.3575C34.3801 23.7285 34.2443 24.0498 33.9729 24.3213C33.7104 24.5837 33.3937 24.7149 33.0226 24.7149C32.6516 24.7149 32.3303 24.5837 32.0588 24.3213C31.7964 24.0498 31.6652 23.7285 31.6652 23.3575C31.6652 22.9774 31.7964 22.6561 32.0588 22.3937C32.3213 22.1312 32.6425 22 33.0226 22ZM33.1991 27.3891L30.5113 36.905C30.3303 37.5475 30.2398 37.9321 30.2398 38.0588C30.2398 38.2036 30.2805 38.3213 30.362 38.4118C30.4525 38.5023 30.5566 38.5475 30.6742 38.5475C30.81 38.5475 30.9729 38.4751 31.1629 38.3303C31.6787 37.9231 32.1991 37.3439 32.724 36.5928L33.1991 36.905C32.5837 37.8462 31.8597 38.638 31.0271 39.2805C30.4118 39.7602 29.8235 40 29.2624 40C28.8914 40 28.5882 39.8914 28.3529 39.6742C28.1176 39.448 28 39.1674 28 38.8326C28 38.4977 28.1131 37.9412 28.3394 37.1629L30.1041 31.0814C30.3937 30.086 30.5385 29.4615 30.5385 29.2081C30.5385 29.009 30.4661 28.8462 30.3213 28.7195C30.1855 28.5928 29.9955 28.5294 29.7511 28.5294C29.552 28.5294 29.1403 28.5792 28.5158 28.6787V28.1493L33.1991 27.3891Z" fill="#5F5C6B"/>
</svg>
