<svg width="39" height="39" viewBox="0 0 39 39" fill="none" xmlns="http://www.w3.org/2000/svg">
<rect width="39" height="39" rx="8" fill="#F1F0F5"/>
<path d="M22.7 20C22.7 18.5 21.5 17.3 20 17.3C18.5 17.3 17.3 18.5 17.3 20C17.3 21.5 18.5 22.7 20 22.7C21.5 22.7 22.7 21.5 22.7 20ZM24.1 20C24.1 22.3 22.3 24.1 20 24.1C17.7 24.1 15.9 22.3 15.9 20C15.9 17.7 17.7 15.9 20 15.9C22.3 15.9 24.1 17.7 24.1 20ZM25.2 15.7C25.2 16.3 24.8 16.7 24.2 16.7C23.6 16.7 23.2 16.3 23.2 15.7C23.2 15.1 23.6 14.7 24.2 14.7C24.8 14.7 25.2 15.2 25.2 15.7ZM20 13.4C18.8 13.4 16.3 13.3 15.3 13.7C14.6 14 14 14.6 13.8 15.3C13.4 16.3 13.5 18.8 13.5 20C13.5 21.2 13.4 23.7 13.8 24.7C14 25.4 14.6 26 15.3 26.2C16.3 26.6 18.9 26.5 20 26.5C21.1 26.5 23.7 26.6 24.7 26.2C25.4 25.9 25.9 25.4 26.2 24.7C26.6 23.6 26.5 21.1 26.5 20C26.5 18.9 26.6 16.3 26.2 15.3C26 14.6 25.4 14 24.7 13.8C23.7 13.3 21.2 13.4 20 13.4ZM28 20V23.3C28 24.5 27.6 25.7 26.7 26.7C25.8 27.6 24.6 28 23.3 28H16.7C15.5 28 14.3 27.6 13.3 26.7C12.5 25.8 12 24.6 12 23.3V20V16.7C12 15.4 12.5 14.2 13.3 13.3C14.3 12.5 15.5 12 16.7 12H23.3C24.5 12 25.7 12.4 26.7 13.3C27.5 14.2 28 15.4 28 16.7V20Z" fill="#7A7786"/>
</svg>
