<svg width="20" height="20" viewBox="0 0 20 20" fill="none" xmlns="http://www.w3.org/2000/svg">
<circle cx="10" cy="10" r="10" fill="#E1E0E7"/>
<path d="M10.6951 14.7328H9.18501V8.00874H10.6951V14.7328ZM9.0918 6.26247C9.0918 6.03047 9.1643 5.83782 9.3093 5.68453C9.45845 5.53124 9.66974 5.45459 9.94318 5.45459C10.2166 5.45459 10.4279 5.53124 10.5771 5.68453C10.7262 5.83782 10.8008 6.03047 10.8008 6.26247C10.8008 6.49034 10.7262 6.68092 10.5771 6.83421C10.4279 6.98335 10.2166 7.05793 9.94318 7.05793C9.66974 7.05793 9.45845 6.98335 9.3093 6.83421C9.1643 6.68092 9.0918 6.49034 9.0918 6.26247Z" fill="#8C8A97"/>
</svg>
