<svg width="56" height="32" viewBox="0 0 56 32" fill="none" xmlns="http://www.w3.org/2000/svg">
<path d="M46.1873 -4.03742e-07L55.4238 16L36.9508 16L46.1873 -4.03742e-07Z" fill="#8C8A97"/>
<path d="M46.1873 32L55.4238 16L36.9508 16L46.1873 32Z" fill="#ACABB7"/>
<path d="M27.7144 32L46.1875 32L36.951 16" fill="#4E4B59"/>
<path d="M27.7146 -4.03742e-07L18.4738 16L36.9512 16L27.7146 -4.03742e-07Z" fill="#8C8A97"/>
<path d="M36.9512 16L18.4738 16L27.7146 32L36.9512 16Z" fill="#ACABB7"/>
<path d="M27.7148 0L9.23748 -8.07671e-07L18.474 16L27.7148 0Z" fill="#4E4B59"/>
<path d="M9.23807 -4.03742e-07L0.00153472 16L18.4746 16L9.23807 -4.03742e-07Z" fill="#ACABB7"/>
<path d="M18.4746 16L0.00153542 16L9.23807 32L18.4746 16Z" fill="#8C8A97"/>
</svg>
